<svg width="100%" height="100%" viewBox="0 0 500 500" version="1.1" xmlns="http://www.w3.org/2000/svg" xmlns:xlink="http://www.w3.org/1999/xlink" xml:space="preserve" xmlns:serif="http://www.serif.com/" style="fill-rule:evenodd;clip-rule:evenodd;stroke-linejoin:round;stroke-miterlimit:2;"><g transform="matrix(0.96,0,0,0.958,10,10.5)"><path d="M500,125L0,125C0,56.011 56.011,0 125,0L375,0C443.989,0 500,56.011 500,125Z" style="fill:rgb(252,99,201);"/><path d="M500,125L0,125C0,56.011 56.011,0 125,0L375,0C443.989,0 500,56.011 500,125ZM476,103.253C465.997,56.686 424.54,21.747 375,21.747L125,21.747C75.46,21.747 34.003,56.686 24,103.253L476,103.253Z" style="fill:rgb(252,99,201);"/></g><g transform="matrix(0.96,0,0,0.958,10,10.5)"><path d="M500,125L500,375C500,443.989 443.989,500 375,500L125,500C56.011,500 0,443.989 0,375L0,125L500,125Z" style="fill:white;"/></g><g transform="matrix(1,0,0,1,28.8137,27.1028)"><g transform="matrix(96.3272,0,0,96.3272,307.169,77.1608)"></g><text x="135.869px" y="77.161px" style="font-family:'ArialMT', 'Arial', sans-serif;font-size:96.327px;fill:white;">JUL</text></g><g transform="matrix(1,0,0,1,92.7689,118.933)"><g transform="matrix(266.667,0,0,266.667,306.32,285.082)"></g><text x="9.705px" y="285.082px" style="font-family:'ArialMT', 'Arial', sans-serif;font-size:266.667px;">17</text></g></svg>